<svg xmlns="http://www.w3.org/2000/svg" viewBox="0 0 960 720" role="img" aria-labelledby="title desc">
  <title id="title">Manufacturing process flow illustration</title>
  <desc id="desc">A stylized process flow with icons for design, planning, production, delivery, and service.</desc>
  <rect width="960" height="720" rx="32" fill="#f5f7ff"/>
  <path d="M122 360h716" fill="none" stroke="#5b2db5" stroke-width="18" stroke-linecap="round" stroke-dasharray="16 22"/>
  <g fill="#fff" stroke="#5b2db5" stroke-width="10">
    <circle cx="170" cy="360" r="74"/>
    <circle cx="350" cy="360" r="74"/>
    <circle cx="530" cy="360" r="74"/>
    <circle cx="710" cy="360" r="74"/>
  </g>
  <g fill="#41207f" font-family="Segoe UI, Arial, sans-serif" text-anchor="middle">
    <text x="170" y="449" font-size="28">Design</text>
    <text x="350" y="449" font-size="28">Plan</text>
    <text x="530" y="449" font-size="28">Produce</text>
    <text x="710" y="449" font-size="28">Deliver</text>
  </g>
  <g stroke="#ff6a39" stroke-width="10" stroke-linecap="round" fill="none">
    <path d="M140 340l22-34 36 18 24-34"/>
    <path d="M320 392h58l24-58 36 18"/>
    <path d="M500 394l22-56 34 22 28-44"/>
    <path d="M678 392l36-64 28 18 22-36"/>
  </g>
  <g fill="#ff6a39">
    <rect x="802" y="220" width="88" height="164" rx="20"/>
    <rect x="826" y="180" width="40" height="60" rx="12"/>
    <circle cx="830" cy="408" r="22" fill="#41207f"/>
    <circle cx="868" cy="408" r="22" fill="#41207f"/>
  </g>
  <g fill="#41207f">
    <rect x="116" y="160" width="104" height="74" rx="18"/>
    <rect x="142" y="122" width="52" height="38" rx="10" fill="#8b62df"/>
  </g>
  <circle cx="852" cy="118" r="46" fill="#ffd7c8"/>
  <path d="M852 92v52M826 118h52" stroke="#ff6a39" stroke-width="12" stroke-linecap="round"/>
</svg>
